<svg width="84" height="84" viewBox="0 0 84 84" fill="none" xmlns="http://www.w3.org/2000/svg">
<rect width="84" height="84" fill="#E4E8F6"/>
<g opacity="0.2" clip-path="url(#clip0_3524_156966)">
<path fill-rule="evenodd" clip-rule="evenodd" d="M36.6784 27.0766L42.0137 24L50.0211 28.6978L44.807 31.8444L36.6784 27.0766ZM27 32.8917L27.0137 39.1453L35.0692 34.2493L34.9343 28.068L27 32.8917ZM27.1234 50.3136L32.4152 53.4532L32.3398 43.8991L27.0502 40.8994L27.1234 50.3136ZM56.9314 32.9314L51.6327 29.7848L51.7035 39.3529L56.9999 42.3572L56.9314 32.9314ZM56.9269 44.1159L56.8332 50.3695L48.8166 55.0486L48.7892 48.865L56.9269 44.1159ZM41.9931 59L47.3237 55.9256L39.2043 51.1626L33.9947 54.3068L41.9931 59Z" fill="#7683BA"/>
<path fill-rule="evenodd" clip-rule="evenodd" d="M36.6836 27.0767L36.7613 33.3232L44.7596 38.0163L44.8008 31.8397L36.6836 27.0767ZM32.4112 42.1216L27.0371 39.1313L35.0812 34.2423L40.3364 37.3026L32.4112 42.1216ZM37.6643 50.2273L32.4205 53.4532L32.3473 43.8991L37.5912 40.8154L37.6643 50.2273ZM46.3917 33.0083L51.6355 29.7847L51.7064 39.3412L46.4626 42.4225L46.3917 33.0083ZM56.9275 44.1183L51.6037 41.0347L43.5962 45.7068L48.7989 48.8628L56.9275 44.1183ZM47.2467 49.6768L47.3267 55.9211L39.2072 51.158L39.2507 44.9837L47.2467 49.6768Z" fill="#7683BA"/>
</g>
<defs>
<clipPath id="clip0_3524_156966">
<rect width="30" height="35" fill="white" transform="translate(27 24)"/>
</clipPath>
</defs>
</svg>
